<?xml version="1.0" encoding="utf-8"?>
<!-- Generator: Adobe Illustrator 25.4.1, SVG Export Plug-In . SVG Version: 6.00 Build 0)  -->
<svg version="1.1" id="Layer_1" xmlns="http://www.w3.org/2000/svg" xmlns:xlink="http://www.w3.org/1999/xlink" x="0px" y="0px"
	 viewBox="0 0 720 504" style="enable-background:new 0 0 720 504;" xml:space="preserve">
<style type="text/css">
	.st0{opacity:0.54;}
	.st1{fill:#FFFFFF;}
	.st2{fill:url(#SVGID_1_);}
	.st3{fill:url(#SVGID_00000026863573482819496750000008174103503487036080_);}
	.st4{fill:url(#SVGID_00000013153474221841976880000011482804713649512848_);}
	.st5{fill:url(#SVGID_00000132793991391322655680000002702060077008867261_);}
	.st6{fill:url(#SVGID_00000169520604950309902560000005656078444147143826_);}
	.st7{fill:url(#SVGID_00000144331530166241258400000009189534436202369457_);}
	.st8{fill:url(#SVGID_00000137852269678884708160000010497173676707832490_);}
	.st9{fill:url(#SVGID_00000133507541295519018560000005265553972897550503_);}
	.st10{fill:url(#SVGID_00000160165693067847207340000010331607456615254460_);}
	.st11{fill:url(#SVGID_00000133507573856070745930000011135081183118856323_);}
	.st12{fill:url(#SVGID_00000165220214699387936330000011959208116046686611_);}
	.st13{fill:url(#SVGID_00000060739696160388542480000006962196223963274399_);}
	.st14{fill:#1982A8;}
	.st15{fill:#47BAE3;}
	.st16{fill:#66CFFD;}
	.st17{opacity:0.2;fill:#FFFFFF;}
	.st18{opacity:0.52;fill:#FFFFFF;}
	.st19{opacity:0.52;}
	.st20{fill:#A3EFEB;}
	.st21{fill:#6FDDD5;}
	.st22{fill:url(#SVGID_00000038392639419024323820000009033063539514217888_);}
	.st23{fill:url(#SVGID_00000081647729429172451960000006685360504540414624_);}
	.st24{fill:url(#SVGID_00000023257337429271492350000014529812218131157380_);}
	.st25{fill:url(#SVGID_00000182494416486611118370000003671217548803070372_);}
	.st26{fill:url(#SVGID_00000170978752106318680490000018320992700237567388_);}
	.st27{fill:url(#SVGID_00000075162510624106691300000005713821235329802643_);}
	.st28{fill:url(#SVGID_00000100362817933232064350000003299655805377801094_);}
	.st29{fill:url(#SVGID_00000027595136476883931300000004787816232511943303_);}
	.st30{fill:url(#SVGID_00000093136340054681683980000002998851171144119478_);}
	.st31{fill:url(#SVGID_00000036243437339578746030000000203222039230292383_);}
	.st32{fill:url(#SVGID_00000075153266669076955890000001774294927511862186_);}
	.st33{fill:url(#SVGID_00000023278019762933843940000005713764268607011758_);}
</style>
<g>
	<g>
		<path class="st20" d="M457.38,215.7c0,0-75.12-12.38-91.4-15.3l-35.21-6.32l0,0c5.7,5.19-0.49,13.37-8.51,11.23l-35.48-9.47
			l1.57,3.45c0.62,1.36,0.77,2.87,0.27,4.26c-1.01,2.81-4.03,4.59-7.32,4.59l-15.47,0c-0.74,0-1.49,0.16-2.09,0.53
			c-1.49,0.9-1.49,13.17,0,14.07c0.6,0.36,1.35,0.53,2.09,0.53l15.47,0c3.29,0,6.31,1.79,7.32,4.59c0.5,1.39,0.35,2.9-0.27,4.26
			l-1.57,3.45l35.48-9.47c8.01-2.14,14.21,6.03,8.51,11.23l0,0l35.21-6.32C382.26,228.08,457.38,215.7,457.38,215.7z"/>
		<g class="st0">
			<path class="st21" d="M266.96,208.14h-1.32c-0.74,0-1.49,0.16-2.09,0.53c-0.3,0.18-0.55,0.85-0.72,1.79
				C264.66,210.04,266.17,209.23,266.96,208.14z"/>
			<path class="st21" d="M286.27,206.43l14.57,2.53c7.69,1.33,13.71-3.5,9.13-6.88l-23.38-6.24l1.57,3.45
				c0.62,1.36,0.77,2.87,0.27,4.26C288.01,204.7,287.24,205.67,286.27,206.43z"/>
			<path class="st21" d="M262.82,220.95c0.18,0.94,0.42,1.61,0.72,1.79c0.6,0.36,1.35,0.53,2.09,0.53h1.32
				C266.17,222.18,264.66,221.37,262.82,220.95z"/>
			<path class="st21" d="M300.84,222.45l-14.57,2.53c0.97,0.76,1.74,1.72,2.16,2.88c0.5,1.39,0.35,2.9-0.27,4.26l-1.57,3.45
				l23.38-6.24C314.55,225.96,308.53,221.12,300.84,222.45z"/>
			<path class="st21" d="M457.18,215.7c0,0-75.12-12.38-91.4-15.3l-35.21-6.32h0c3.55,3.24,2.48,7.63-0.77,9.97l14.75,1.72
				c16.28,1.9,91.4,9.93,91.4,9.93s-75.12,8.04-91.4,9.93l-14.75,1.72c3.25,2.33,4.32,6.73,0.77,9.97l35.21-6.32
				C382.07,228.08,457.18,215.7,457.18,215.7z"/>
		</g>
	</g>
	<g>
		<linearGradient id="SVGID_1_" gradientUnits="userSpaceOnUse" x1="234.2447" y1="289.6556" x2="234.2447" y2="309.3934">
			<stop  offset="0" style="stop-color:#F7941D"/>
			<stop  offset="1" style="stop-color:#ED1C24"/>
		</linearGradient>
		<path class="st2" d="M232.08,291.05h4.32v18.45h-4.32V291.05z"/>
		
			<linearGradient id="SVGID_00000063591869950776445900000004041499293299670152_" gradientUnits="userSpaceOnUse" x1="251.903" y1="289.6556" x2="251.903" y2="309.3934">
			<stop  offset="0" style="stop-color:#F7941D"/>
			<stop  offset="1" style="stop-color:#ED1C24"/>
		</linearGradient>
		<path style="fill:url(#SVGID_00000063591869950776445900000004041499293299670152_);" d="M260.73,298.59v8.22
			c-0.93,1-2.08,1.77-3.44,2.31c-1.36,0.54-2.86,0.8-4.49,0.8c-1.95,0-3.66-0.39-5.13-1.19c-1.47-0.79-2.6-1.91-3.4-3.37
			c-0.8-1.46-1.2-3.15-1.2-5.09c0-1.88,0.42-3.55,1.27-5.02c0.84-1.47,2.02-2.61,3.54-3.43c1.52-0.82,3.26-1.23,5.23-1.23
			c1.42,0,2.71,0.25,3.86,0.74c1.15,0.49,2.21,1.24,3.18,2.24l-2.61,2.58c-0.58-0.58-1.26-1.03-2.04-1.34s-1.59-0.47-2.41-0.47
			c-1.78,0-3.18,0.53-4.2,1.59c-1.03,1.06-1.54,2.51-1.54,4.34c0,1.18,0.23,2.21,0.69,3.11c0.46,0.9,1.11,1.59,1.95,2.08
			c0.84,0.49,1.82,0.74,2.93,0.74c1.74,0,3.13-0.45,4.16-1.34v-2.82h-5.01v-3.45H260.73z"/>
		
			<linearGradient id="SVGID_00000112594916867789870720000010474277214374808193_" gradientUnits="userSpaceOnUse" x1="275.8734" y1="289.6556" x2="275.8734" y2="309.3934">
			<stop  offset="0" style="stop-color:#F7941D"/>
			<stop  offset="1" style="stop-color:#ED1C24"/>
		</linearGradient>
		<path style="fill:url(#SVGID_00000112594916867789870720000010474277214374808193_);" d="M279.81,291.05h4.3v18.45h-3.87
			l-8.35-11.41l0.05,4.98v6.43h-4.3v-18.45h3.87l8.35,11.46l-0.05-4.93V291.05z"/>
		
			<linearGradient id="SVGID_00000109011789782292475590000012816553917989120678_" gradientUnits="userSpaceOnUse" x1="293.9663" y1="289.6556" x2="293.9663" y2="309.3934">
			<stop  offset="0" style="stop-color:#F7941D"/>
			<stop  offset="1" style="stop-color:#ED1C24"/>
		</linearGradient>
		<path style="fill:url(#SVGID_00000109011789782292475590000012816553917989120678_);" d="M291.81,291.05h4.32v18.45h-4.32V291.05z
			"/>
		
			<linearGradient id="SVGID_00000034811078501899313490000000275332631240163479_" gradientUnits="userSpaceOnUse" x1="310.0565" y1="289.6556" x2="310.0565" y2="309.3934">
			<stop  offset="0" style="stop-color:#F7941D"/>
			<stop  offset="1" style="stop-color:#ED1C24"/>
		</linearGradient>
		<path style="fill:url(#SVGID_00000034811078501899313490000000275332631240163479_);" d="M317.84,291.05v3.77h-5.64v14.68h-4.32
			v-14.68h-5.61v-3.77H317.84z"/>
		
			<linearGradient id="SVGID_00000042711445697767599840000004454620978137107608_" gradientUnits="userSpaceOnUse" x1="331.1142" y1="289.6556" x2="331.1142" y2="309.3934">
			<stop  offset="0" style="stop-color:#F7941D"/>
			<stop  offset="1" style="stop-color:#ED1C24"/>
		</linearGradient>
		<path style="fill:url(#SVGID_00000042711445697767599840000004454620978137107608_);" d="M328.12,305.86h10.17v3.64h-14.36v-18.45
			h14.07v3.61h-9.88v3.74h9.36v3.48h-9.36V305.86z"/>
		
			<linearGradient id="SVGID_00000152978492742848639130000014257541768617362826_" gradientUnits="userSpaceOnUse" x1="362.5428" y1="289.6556" x2="362.5428" y2="309.3934">
			<stop  offset="0" style="stop-color:#F7941D"/>
			<stop  offset="1" style="stop-color:#ED1C24"/>
		</linearGradient>
		<path style="fill:url(#SVGID_00000152978492742848639130000014257541768617362826_);" d="M358.68,308.71
			c-1.5-0.81-2.66-1.94-3.48-3.4c-0.82-1.46-1.23-3.14-1.23-5.03s0.42-3.58,1.25-5.05c0.83-1.47,2-2.6,3.49-3.4
			c1.49-0.8,3.2-1.2,5.11-1.2c2.72,0,5.06,0.96,7.01,2.87l-2.66,2.66c-1.18-1.12-2.59-1.69-4.24-1.69c-1.11,0-2.09,0.24-2.94,0.72
			c-0.85,0.48-1.51,1.16-1.98,2.04c-0.47,0.88-0.7,1.89-0.7,3.03c0,1.14,0.23,2.15,0.7,3.03c0.47,0.88,1.12,1.56,1.98,2.04
			c0.85,0.48,1.83,0.72,2.94,0.72c0.88,0,1.72-0.16,2.53-0.47c0.81-0.32,1.51-0.77,2.11-1.37l2.53,2.82
			c-1.99,1.91-4.38,2.87-7.19,2.87C361.93,309.92,360.18,309.51,358.68,308.71z"/>
		
			<linearGradient id="SVGID_00000040546334499227508730000010205751419489433741_" gradientUnits="userSpaceOnUse" x1="385.4986" y1="289.6556" x2="385.4986" y2="309.3934">
			<stop  offset="0" style="stop-color:#F7941D"/>
			<stop  offset="1" style="stop-color:#ED1C24"/>
		</linearGradient>
		<path style="fill:url(#SVGID_00000040546334499227508730000010205751419489433741_);" d="M389.43,291.05h4.3v18.45h-4.3v-7.41
			h-7.83v7.41h-4.32v-18.45h4.32v7.14h7.83V291.05z"/>
		
			<linearGradient id="SVGID_00000123437717456170020520000010796696907558484877_" gradientUnits="userSpaceOnUse" x1="409.8115" y1="289.6556" x2="409.8115" y2="309.3934">
			<stop  offset="0" style="stop-color:#F7941D"/>
			<stop  offset="1" style="stop-color:#ED1C24"/>
		</linearGradient>
		<path style="fill:url(#SVGID_00000123437717456170020520000010796696907558484877_);" d="M415.7,309.5l-1.37-3.32h-9.09
			l-1.37,3.32h-4.61l8.28-18.45h4.61l8.22,18.45H415.7z M409.82,295.19l-3.03,7.27h6.01L409.82,295.19z"/>
		
			<linearGradient id="SVGID_00000139276614271044839930000013120837396048119474_" gradientUnits="userSpaceOnUse" x1="434.1112" y1="289.6556" x2="434.1112" y2="309.3934">
			<stop  offset="0" style="stop-color:#F7941D"/>
			<stop  offset="1" style="stop-color:#ED1C24"/>
		</linearGradient>
		<path style="fill:url(#SVGID_00000139276614271044839930000013120837396048119474_);" d="M438.05,291.05h4.3v18.45h-3.87
			l-8.35-11.41l0.05,4.98v6.43h-4.3v-18.45h3.87l8.35,11.46l-0.05-4.93V291.05z"/>
		
			<linearGradient id="SVGID_00000013192895373152492970000012608394040829981631_" gradientUnits="userSpaceOnUse" x1="457.818" y1="289.6556" x2="457.818" y2="309.3934">
			<stop  offset="0" style="stop-color:#F7941D"/>
			<stop  offset="1" style="stop-color:#ED1C24"/>
		</linearGradient>
		<path style="fill:url(#SVGID_00000013192895373152492970000012608394040829981631_);" d="M466.65,298.59v8.22
			c-0.93,1-2.08,1.77-3.44,2.31c-1.36,0.54-2.86,0.8-4.49,0.8c-1.95,0-3.66-0.39-5.13-1.19c-1.47-0.79-2.6-1.91-3.4-3.37
			c-0.8-1.46-1.2-3.15-1.2-5.09c0-1.88,0.42-3.55,1.27-5.02c0.84-1.47,2.02-2.61,3.54-3.43c1.52-0.82,3.26-1.23,5.23-1.23
			c1.42,0,2.71,0.25,3.86,0.74c1.15,0.49,2.21,1.24,3.18,2.24l-2.61,2.58c-0.58-0.58-1.26-1.03-2.04-1.34
			c-0.78-0.32-1.59-0.47-2.41-0.47c-1.78,0-3.18,0.53-4.2,1.59c-1.03,1.06-1.54,2.51-1.54,4.34c0,1.18,0.23,2.21,0.69,3.11
			c0.46,0.9,1.11,1.59,1.95,2.08c0.84,0.49,1.82,0.74,2.93,0.74c1.74,0,3.13-0.45,4.16-1.34v-2.82h-5.01v-3.45H466.65z"/>
		
			<linearGradient id="SVGID_00000024704334106803651540000005550467602641928628_" gradientUnits="userSpaceOnUse" x1="480.7343" y1="289.6556" x2="480.7343" y2="309.3934">
			<stop  offset="0" style="stop-color:#F7941D"/>
			<stop  offset="1" style="stop-color:#ED1C24"/>
		</linearGradient>
		<path style="fill:url(#SVGID_00000024704334106803651540000005550467602641928628_);" d="M477.74,305.86h10.17v3.64h-14.36v-18.45
			h14.07v3.61h-9.88v3.74h9.36v3.48h-9.36V305.86z"/>
	</g>
	<g>
		<path class="st21" d="M236.85,276.86v0.78h-4.38c-0.26,0-0.39-0.13-0.39-0.39c0-0.26,0.13-0.39,0.39-0.39H236.85z M260.43,275.31
			v8.21h-23.58v-5.88v-0.78v-10.04h-2.83v-20.97h8.27v10.43h-2.77c-0.26,0-0.39,0.13-0.39,0.39c0,0.26,0.13,0.39,0.39,0.39h2.77
			v9.76h2.83v8.49H260.43z M242.29,257.06v-0.78h9.48c0.26,0,0.39,0.13,0.39,0.39c0,0.26-0.13,0.39-0.39,0.39H242.29z"/>
		<path class="st21" d="M267.7,272.87v0.78h-4.22c-0.26,0-0.39-0.13-0.39-0.39c0-0.26,0.13-0.39,0.39-0.39H267.7z M290.99,251.07
			v3.16h-18.31l0.06,4.1h-2.33c-0.26,0-0.39,0.13-0.39,0.39c0,0.26,0.13,0.39,0.39,0.39h2.33v2.22h17.92l-0.06,6.32h3.44v1.61
			h-17.92v5.88h18.31v8.38H267.7v-9.87v-0.78v-5.21h-3.44v-21.8h26.74v4.44V251.07z M272.74,259.11v-0.78h11.15
			c0.26,0,0.39,0.13,0.39,0.39c0,0.26-0.13,0.39-0.39,0.39H272.74z M295.27,250.29c0.26,0,0.39,0.13,0.39,0.39s-0.13,0.39-0.39,0.39
			h-4.27v-0.78H295.27z"/>
		<path class="st21" d="M330.21,283.52h-9.49l-4.71-9.21l-1.17,2.27l-3.49,6.93h-9.54l6.32-12.37h-4.33l3.05-6.05l-2.55-4.83
			l-0.39-0.78l-6.93-13.42h9.32l5.21,9.71c0.85-1.66,1.72-3.31,2.61-4.94c0.89-1.63,1.72-3.22,2.5-4.77h9.43l-9.65,19.03l0.67,1.33
			h-8.99c-0.26,0-0.39,0.13-0.39,0.39c0,0.26,0.13,0.39,0.39,0.39h9.37l1.89,3.66h4.55L330.21,283.52z M303.92,259.5l0.39,0.78h-4.1
			c-0.26,0-0.39-0.13-0.39-0.39c0-0.26,0.13-0.39,0.39-0.39H303.92z M317.45,267.21l-0.39-0.78h11.26c0.26,0,0.39,0.13,0.39,0.39
			c0,0.26-0.13,0.39-0.39,0.39H317.45z"/>
		<path class="st21" d="M335.93,272.87v0.78h-4.22c-0.26,0-0.39-0.13-0.39-0.39c0-0.26,0.13-0.39,0.39-0.39H335.93z M359.22,251.07
			v3.16h-18.31l0.06,4.1h-2.33c-0.26,0-0.39,0.13-0.39,0.39c0,0.26,0.13,0.39,0.39,0.39h2.33v2.22h17.92l-0.05,6.32h3.44v1.61
			h-17.92v5.88h18.31v8.38h-26.74v-9.87v-0.78v-5.21h-3.44v-21.8h26.74v4.44V251.07z M340.97,259.11v-0.78h11.15
			c0.26,0,0.39,0.13,0.39,0.39c0,0.26-0.13,0.39-0.39,0.39H340.97z M363.49,250.29c0.26,0,0.39,0.13,0.39,0.39s-0.13,0.39-0.39,0.39
			h-4.27v-0.78H363.49z"/>
		<path class="st21" d="M376.47,264.21v4.05h2.77v10.04v0.78v4.44h-8.32v-15.14h-2.77v-23.13l9.93,8.88h-7.38
			c-0.26,0-0.39,0.13-0.39,0.39c0,0.26,0.13,0.39,0.39,0.39h8.26l12.04,10.71v-19.64h8.32v22.3h2.77v16.7l-18.19-16.59h-2.94
			L376.47,264.21z M378.97,254.9l-0.89-0.78h8.04c0.26,0,0.39,0.13,0.39,0.39c0,0.26-0.13,0.39-0.39,0.39H378.97z M379.25,279.08
			v-0.78h11.04c0.26,0,0.39,0.13,0.39,0.39c0,0.26-0.13,0.39-0.39,0.39H379.25z"/>
		<path class="st21" d="M411.2,279.86v0.78h-3.61c-0.26,0-0.39-0.13-0.39-0.39c0-0.26,0.13-0.39,0.39-0.39H411.2z M436.06,252.84
			c0.85,1.11,1.56,2.32,2.13,3.63c0.57,1.31,1.01,2.75,1.3,4.3h3.77c0.11,0.7,0.2,1.41,0.28,2.14c0.07,0.72,0.11,1.47,0.11,2.25
			c0,2.74-0.4,5.19-1.18,7.35c-0.79,2.16-1.9,4.02-3.33,5.58h-7.26c-0.26,0-0.39,0.13-0.39,0.39s0.13,0.39,0.39,0.39h6.49
			c-1.66,1.55-3.63,2.73-5.9,3.52c-2.27,0.8-4.81,1.19-7.62,1.19l-13.64-0.06v-2.88v-0.78v-19.08h-3.77v-14.92h13.62
			c3.03,0,5.76,0.54,8.2,1.61c2.44,1.07,4.49,2.61,6.15,4.6L436.06,252.84z M435.22,264.99c0-1.52-0.22-2.92-0.66-4.22h-3.77
			c-0.63-1.81-1.61-3.34-2.94-4.58c-1.33-1.24-3-1.89-4.99-1.97c-0.19,0-0.4,0-0.64,0s-0.6-0.01-1.08-0.03
			c-0.48-0.02-1.15-0.03-2-0.03c-0.85,0-2,0-3.44,0v6.6h3.77v10.43h-3.38c-0.26,0-0.39,0.13-0.39,0.39c0,0.26,0.13,0.39,0.39,0.39
			h3.38v3.22h7.27c0.3,0,0.61-0.04,0.94-0.11c0.33-0.07,0.65-0.15,0.94-0.22c1.11-0.33,2.07-0.83,2.89-1.5
			c0.81-0.67,1.5-1.43,2.05-2.3c0.55-0.87,0.97-1.82,1.25-2.86C435.08,267.17,435.22,266.1,435.22,264.99z M431.72,271.59
			c0,0.26-0.13,0.39-0.39,0.39h-11.87v-0.78h11.87C431.59,271.2,431.72,271.33,431.72,271.59z M444.2,252.07
			c0.26,0,0.39,0.13,0.39,0.39s-0.13,0.39-0.39,0.39h-8.1c-0.11-0.15-0.22-0.29-0.33-0.42c-0.11-0.13-0.22-0.25-0.33-0.36H444.2z"/>
		<path class="st21" d="M487.53,274.75c0.26,0,0.39,0.13,0.39,0.39c0,0.26-0.13,0.39-0.39,0.39h-3.27c-1.7,2.44-3.89,4.38-6.57,5.82
			c-2.68,1.44-5.65,2.16-8.9,2.16c-2.4,0-4.67-0.42-6.79-1.25c-2.13-0.83-4.02-1.98-5.69-3.44c-1.66-1.46-3.03-3.19-4.11-5.19
			c-1.07-2-1.76-4.16-2.05-6.49h-3.33c-0.11-0.7-0.17-1.46-0.17-2.28c0-2.59,0.49-5.03,1.47-7.31c0.98-2.28,2.32-4.27,4.02-5.98
			c1.7-1.71,3.69-3.05,5.96-4.03c2.27-0.98,4.72-1.47,7.35-1.47c2.59,0,5.03,0.49,7.32,1.47c2.29,0.98,4.29,2.33,5.99,4.03
			c1.7,1.71,3.04,3.7,4.02,5.98c0.98,2.28,1.47,4.72,1.47,7.31c0,0.37-0.01,0.73-0.03,1.09c-0.02,0.35-0.05,0.71-0.08,1.08h3.33
			c-0.33,2.81-1.24,5.38-2.72,7.71H487.53z M480.59,259.44c0.26,0,0.39-0.13,0.39-0.39c0-0.26-0.13-0.39-0.39-0.39h-6.77
			c-0.92-1.28-2.11-2.3-3.55-3.07c-1.44-0.77-3.05-1.15-4.83-1.15c-2.22,0-4.19,0.6-5.91,1.8c-1.72,1.2-2.95,2.77-3.69,4.69h7.54
			c0.26,0,0.39,0.13,0.39,0.39c0,0.26-0.13,0.39-0.39,0.39h-7.82c-0.33,1-0.5,2.05-0.5,3.16c0,0.37,0.02,0.73,0.06,1.08
			c0.04,0.35,0.09,0.71,0.17,1.08h3.38c0.22,1.07,0.6,2.05,1.14,2.94c0.54,0.89,1.17,1.68,1.91,2.39h-6.27
			c-0.26,0-0.39,0.13-0.39,0.39c0,0.26,0.13,0.39,0.39,0.39h7.21c1.74,1.33,3.77,2,6.1,2c1.22,0,2.39-0.2,3.5-0.61
			c1.11-0.41,2.11-0.96,3-1.66c0.89-0.7,1.65-1.54,2.27-2.52c0.63-0.98,1.07-2.04,1.33-3.19h-3.27c0.07-0.37,0.13-0.74,0.17-1.12
			c0.04-0.37,0.06-0.76,0.06-1.17c0-0.97-0.13-1.91-0.39-2.82c-0.26-0.91-0.61-1.78-1.05-2.6H480.59z M462.68,273.14
			c-0.33-0.22-0.65-0.48-0.94-0.78L462.68,273.14z M473.83,258.67l0.55,0.78h-5.99c-0.26,0-0.39-0.13-0.39-0.39
			c0-0.26,0.13-0.39,0.39-0.39H473.83z"/>
	</g>
</g>
</svg>
