<?xml version="1.0" encoding="utf-8"?>
<!-- Generator: Adobe Illustrator 25.4.1, SVG Export Plug-In . SVG Version: 6.00 Build 0)  -->
<svg version="1.1" id="Layer_1" xmlns="http://www.w3.org/2000/svg" xmlns:xlink="http://www.w3.org/1999/xlink" x="0px" y="0px"
	 viewBox="0 0 257 126" style="enable-background:new 0 0 257 126;" xml:space="preserve">
<style type="text/css">
	.st0{opacity:0.54;}
	.st1{fill:#FFFFFF;}
	.st2{fill:#A3EFEB;}
	.st3{fill:#6FDDD5;}
	.st4{fill:url(#SVGID_1_);}
	.st5{fill:url(#SVGID_00000159464453199214497890000016613668581522879673_);}
	.st6{fill:url(#SVGID_00000096026150942177694860000009704373117090822833_);}
	.st7{fill:url(#SVGID_00000007386942175524842990000010933937530467461275_);}
	.st8{fill:url(#SVGID_00000038375540003591454450000002362692852581305276_);}
	.st9{fill:url(#SVGID_00000060030853237131927150000003218016343342428603_);}
	.st10{fill:url(#SVGID_00000041975708633265846030000011943677242601471386_);}
	.st11{fill:url(#SVGID_00000044175426919456875700000010687303547834180243_);}
	.st12{fill:url(#SVGID_00000055698351642953104650000002916481916637558710_);}
	.st13{fill:url(#SVGID_00000008114934340836335590000015628036134303433601_);}
	.st14{fill:url(#SVGID_00000127005846837633732710000009133624915227444120_);}
	.st15{fill:url(#SVGID_00000155105231819765557110000002149368446241779590_);}
	.st16{fill:url(#SVGID_00000111873680815326697410000009202630365884472481_);}
	.st17{fill:url(#SVGID_00000067222081110381143580000016972790562518940822_);}
	.st18{fill:url(#SVGID_00000113310665960965150080000014593344702551045822_);}
	.st19{fill:url(#SVGID_00000117643493764079294670000005564992022006007739_);}
	.st20{fill:url(#SVGID_00000070100196208891647780000006312633903109304992_);}
	.st21{fill:url(#SVGID_00000106841873094397190010000015957317428089338548_);}
	.st22{fill:url(#SVGID_00000011017433389524596990000014639003426728619146_);}
	.st23{fill:url(#SVGID_00000011719073446574545680000001448577366876974746_);}
	.st24{fill:url(#SVGID_00000061453043021743275770000007597091354101651585_);}
	.st25{fill:url(#SVGID_00000010275749208858539660000000651091671780565893_);}
	.st26{fill:url(#SVGID_00000045578815799722579250000012799596820065262752_);}
	.st27{fill:url(#SVGID_00000062154905437200990450000001935381187551189408_);}
	.st28{fill:#1982A8;}
	.st29{fill:#47BAE3;}
	.st30{fill:#66CFFD;}
	.st31{opacity:0.2;fill:#FFFFFF;}
	.st32{opacity:0.52;fill:#FFFFFF;}
	.st33{opacity:0.52;}
</style>
<g>
	<g>
		<g>
			<path d="M215.88,30.43c0,0-67.41-11.11-82.01-13.73l-31.6-5.67l0,0c5.12,4.66-0.44,11.99-7.64,10.07L62.8,12.6l1.41,3.1
				c0.55,1.22,0.69,2.57,0.24,3.82c-0.91,2.52-3.62,4.12-6.57,4.12l-13.88,0c-0.67,0-1.34,0.15-1.88,0.47
				c-1.33,0.81-1.33,11.82,0,12.62c0.54,0.33,1.21,0.47,1.88,0.47l13.88,0c2.96,0,5.66,1.6,6.57,4.12c0.45,1.25,0.31,2.6-0.24,3.82
				l-1.41,3.1l31.84-8.5c7.19-1.92,12.75,5.41,7.64,10.07l0,0l31.6-5.67C148.48,41.53,215.88,30.43,215.88,30.43z"/>
			<g class="st0">
				<path d="M45.01,23.64h-1.19c-0.67,0-1.34,0.15-1.88,0.47c-0.27,0.16-0.49,0.76-0.65,1.61C42.95,25.34,44.3,24.62,45.01,23.64z"
					/>
				<path d="M62.34,22.1l13.07,2.27c6.9,1.2,12.3-3.14,8.19-6.17l-20.98-5.6l1.41,3.1c0.55,1.22,0.69,2.57,0.24,3.82
					C63.9,20.56,63.21,21.43,62.34,22.1z"/>
				<path d="M41.29,35.13c0.16,0.84,0.38,1.44,0.65,1.61c0.54,0.33,1.21,0.47,1.88,0.47h1.19C44.3,36.24,42.95,35.51,41.29,35.13z"
					/>
				<path d="M75.41,36.49l-13.07,2.27c0.87,0.68,1.56,1.55,1.93,2.58c0.45,1.25,0.31,2.6-0.24,3.82l-1.41,3.1l20.98-5.6
					C87.71,39.63,82.32,35.29,75.41,36.49z"/>
				<path d="M215.71,30.43c0,0-67.41-11.11-82.01-13.73l-31.6-5.67h0c3.19,2.91,2.23,6.85-0.69,8.94l13.24,1.54
					c14.61,1.7,82.01,8.92,82.01,8.92s-67.41,7.21-82.01,8.92l-13.24,1.54c2.92,2.09,3.88,6.04,0.69,8.94l31.6-5.67
					C148.3,41.53,215.71,30.43,215.71,30.43z"/>
			</g>
		</g>
		<g>
			<path d="M13.71,98.04h3.88v16.56h-3.88V98.04z"/>
			<path d="M39.42,104.8v7.38c-0.84,0.9-1.86,1.59-3.09,2.07c-1.22,0.48-2.57,0.72-4.03,0.72c-1.75,0-3.28-0.35-4.6-1.06
				c-1.32-0.71-2.33-1.72-3.05-3.03c-0.72-1.31-1.08-2.83-1.08-4.56c0-1.69,0.38-3.19,1.14-4.51c0.76-1.32,1.82-2.34,3.18-3.07
				c1.36-0.73,2.93-1.1,4.69-1.1c1.28,0,2.43,0.22,3.46,0.66c1.03,0.44,1.98,1.11,2.85,2.01l-2.34,2.32
				c-0.52-0.52-1.13-0.92-1.83-1.21c-0.7-0.28-1.42-0.43-2.16-0.43c-1.59,0-2.85,0.48-3.77,1.43c-0.92,0.95-1.38,2.25-1.38,3.89
				c0,1.06,0.2,1.99,0.62,2.79c0.41,0.8,0.99,1.43,1.75,1.87c0.76,0.44,1.63,0.66,2.63,0.66c1.56,0,2.81-0.4,3.74-1.21v-2.53h-4.49
				v-3.1H39.42z"/>
			<path d="M56.55,98.04h3.85v16.56h-3.48l-7.5-10.24l0.05,4.47v5.77h-3.86V98.04h3.48l7.5,10.29l-0.05-4.42V98.04z"/>
			<path d="M67.31,98.04h3.88v16.56h-3.88V98.04z"/>
			<path d="M90.67,98.04v3.38h-5.06v13.17h-3.88v-13.17h-5.04v-3.38H90.67z"/>
			<path d="M99.89,111.33h9.13v3.26H96.13V98.04h12.63v3.24h-8.87v3.36h8.4v3.12h-8.4V111.33z"/>
			<path d="M127.32,113.89c-1.35-0.72-2.39-1.74-3.12-3.05c-0.73-1.31-1.1-2.81-1.1-4.52c0-1.7,0.37-3.21,1.12-4.53
				c0.75-1.32,1.79-2.33,3.13-3.05c1.34-0.72,2.87-1.08,4.59-1.08c2.44,0,4.54,0.86,6.29,2.58l-2.39,2.39
				c-1.06-1.01-2.33-1.51-3.81-1.51c-0.99,0-1.87,0.22-2.64,0.65c-0.76,0.43-1.36,1.04-1.77,1.83c-0.42,0.79-0.63,1.69-0.63,2.72
				c0,1.03,0.21,1.93,0.63,2.72c0.42,0.79,1.01,1.4,1.77,1.83c0.76,0.43,1.64,0.65,2.64,0.65c0.79,0,1.54-0.14,2.27-0.43
				c0.72-0.28,1.36-0.69,1.89-1.23l2.27,2.53c-1.78,1.72-3.93,2.58-6.46,2.58C130.23,114.97,128.67,114.61,127.32,113.89z"/>
			<path d="M154.91,98.04h3.85v16.56h-3.85v-6.65h-7.02v6.65H144V98.04h3.88v6.41h7.02V98.04z"/>
			<path d="M178.48,114.6l-1.23-2.98h-8.16l-1.23,2.98h-4.14l7.43-16.56h4.14l7.38,16.56H178.48z M173.21,101.75l-2.72,6.53h5.39
				L173.21,101.75z"/>
			<path d="M198.54,98.04h3.85v16.56h-3.48l-7.5-10.24l0.05,4.47v5.77h-3.86V98.04h3.48l7.5,10.29l-0.05-4.42V98.04z"/>
			<path d="M224.2,104.8v7.38c-0.84,0.9-1.86,1.59-3.09,2.07c-1.22,0.48-2.57,0.72-4.03,0.72c-1.75,0-3.28-0.35-4.6-1.06
				c-1.32-0.71-2.33-1.72-3.05-3.03c-0.72-1.31-1.08-2.83-1.08-4.56c0-1.69,0.38-3.19,1.14-4.51c0.76-1.32,1.82-2.34,3.18-3.07
				c1.36-0.73,2.93-1.1,4.69-1.1c1.28,0,2.43,0.22,3.46,0.66c1.03,0.44,1.98,1.11,2.85,2.01l-2.34,2.32
				c-0.52-0.52-1.13-0.92-1.83-1.21c-0.7-0.28-1.42-0.43-2.16-0.43c-1.59,0-2.85,0.48-3.77,1.43c-0.92,0.95-1.38,2.25-1.38,3.89
				c0,1.06,0.2,1.99,0.62,2.79c0.41,0.8,0.99,1.43,1.75,1.87c0.76,0.44,1.63,0.66,2.63,0.66c1.56,0,2.81-0.4,3.74-1.21v-2.53h-4.49
				v-3.1H224.2z"/>
			<path d="M234.16,111.33h9.13v3.26H230.4V98.04h12.63v3.24h-8.87v3.36h8.4v3.12h-8.4V111.33z"/>
		</g>
		<g>
			<path d="M18,85.31v0.7h-3.93c-0.23,0-0.35-0.12-0.35-0.35c0-0.23,0.12-0.35,0.35-0.35H18z M39.15,83.92v7.37H18v-5.28v-0.7V76.3
				h-2.54V57.48h7.42v9.36h-2.49c-0.23,0-0.35,0.12-0.35,0.35c0,0.23,0.12,0.35,0.35,0.35h2.49v8.76h2.54v7.62H39.15z M22.87,67.54
				v-0.7h8.51c0.23,0,0.35,0.12,0.35,0.35c0,0.23-0.12,0.35-0.35,0.35H22.87z"/>
			<path d="M45.67,81.73v0.7h-3.78c-0.23,0-0.35-0.12-0.35-0.35c0-0.23,0.12-0.35,0.35-0.35H45.67z M66.58,62.16V65H50.15l0.05,3.68
				h-2.09c-0.23,0-0.35,0.12-0.35,0.35c0,0.23,0.12,0.35,0.35,0.35h2.09v1.99h16.08l-0.05,5.67h3.09v1.44H53.24v5.28h16.43v7.52
				H45.67v-8.86v-0.7v-4.68h-3.09V57.48h23.99v3.98V62.16z M50.2,69.38v-0.7h10.01c0.23,0,0.35,0.12,0.35,0.35
				c0,0.23-0.12,0.35-0.35,0.35H50.2z M70.41,61.47c0.23,0,0.35,0.12,0.35,0.35s-0.12,0.35-0.35,0.35h-3.83v-0.7H70.41z"/>
			<path d="M101.77,91.28h-8.51l-4.23-8.26l-1.05,2.04l-3.14,6.22h-8.56l5.68-11.1h-3.88l2.74-5.43l-2.29-4.33l-0.35-0.7
				l-6.22-12.05h8.36l4.68,8.71c0.76-1.49,1.54-2.97,2.34-4.43c0.8-1.46,1.54-2.89,2.24-4.28h8.46l-8.66,17.07l0.6,1.19h-8.06
				c-0.23,0-0.35,0.12-0.35,0.35c0,0.23,0.12,0.35,0.35,0.35h8.41l1.69,3.29h4.08L101.77,91.28z M78.18,69.73l0.35,0.7h-3.68
				c-0.23,0-0.35-0.12-0.35-0.35c0-0.23,0.12-0.35,0.35-0.35H78.18z M90.32,76.65l-0.35-0.7h10.1c0.23,0,0.35,0.12,0.35,0.35
				c0,0.23-0.12,0.35-0.35,0.35H90.32z"/>
			<path d="M106.9,81.73v0.7h-3.78c-0.23,0-0.35-0.12-0.35-0.35c0-0.23,0.12-0.35,0.35-0.35H106.9z M127.8,62.16V65h-16.43
				l0.05,3.68h-2.09c-0.23,0-0.35,0.12-0.35,0.35c0,0.23,0.12,0.35,0.35,0.35h2.09v1.99h16.08l-0.05,5.67h3.09v1.44h-16.08v5.28
				h16.43v7.52H106.9v-8.86v-0.7v-4.68h-3.09V57.48h23.99v3.98V62.16z M111.43,69.38v-0.7h10.01c0.23,0,0.35,0.12,0.35,0.35
				c0,0.23-0.12,0.35-0.35,0.35H111.43z M131.64,61.47c0.23,0,0.35,0.12,0.35,0.35s-0.12,0.35-0.35,0.35h-3.83v-0.7H131.64z"/>
			<path d="M143.28,73.96v3.63h2.49v9.01v0.7v3.98h-7.47V77.69h-2.49V56.94l8.91,7.96h-6.62c-0.23,0-0.35,0.12-0.35,0.35
				c0,0.23,0.12,0.35,0.35,0.35h7.42l10.8,9.61V57.58h7.47v20.01h2.49v14.98l-16.33-14.88h-2.64L143.28,73.96z M145.52,65.6
				l-0.8-0.7h7.22c0.23,0,0.35,0.12,0.35,0.35c0,0.23-0.12,0.35-0.35,0.35H145.52z M145.77,87.3v-0.7h9.91
				c0.23,0,0.35,0.12,0.35,0.35c0,0.23-0.12,0.35-0.35,0.35H145.77z"/>
			<path d="M174.44,88v0.7h-3.24c-0.23,0-0.35-0.12-0.35-0.35c0-0.23,0.12-0.35,0.35-0.35H174.44z M196.75,63.76
				c0.76,1,1.4,2.08,1.91,3.26c0.51,1.18,0.9,2.46,1.17,3.86h3.38c0.1,0.63,0.18,1.27,0.25,1.92c0.07,0.65,0.1,1.32,0.1,2.02
				c0,2.46-0.35,4.65-1.06,6.59c-0.71,1.94-1.71,3.61-2.99,5h-6.52c-0.23,0-0.35,0.12-0.35,0.35c0,0.23,0.12,0.35,0.35,0.35h5.82
				c-1.49,1.39-3.26,2.45-5.3,3.16c-2.04,0.71-4.32,1.07-6.84,1.07l-12.24-0.05V88.7V88V70.87h-3.39V57.48h12.23
				c2.72,0,5.17,0.48,7.36,1.44c2.19,0.96,4.03,2.34,5.52,4.13L196.75,63.76z M196,74.66c0-1.36-0.2-2.62-0.6-3.78h-3.39
				c-0.56-1.63-1.44-2.99-2.64-4.11c-1.2-1.11-2.69-1.7-4.48-1.77c-0.17,0-0.36,0-0.57,0s-0.54-0.01-0.97-0.02
				c-0.43-0.02-1.03-0.02-1.79-0.02c-0.76,0-1.79,0-3.09,0v5.92h3.38v9.36h-3.04c-0.23,0-0.35,0.12-0.35,0.35
				c0,0.23,0.12,0.35,0.35,0.35h3.04v2.89h6.52c0.27,0,0.55-0.03,0.85-0.1c0.3-0.07,0.58-0.13,0.85-0.2c1-0.3,1.86-0.75,2.59-1.34
				c0.73-0.6,1.34-1.29,1.84-2.07c0.5-0.78,0.87-1.63,1.12-2.56C195.87,76.62,196,75.65,196,74.66z M192.86,80.58
				c0,0.23-0.12,0.35-0.35,0.35h-10.65v-0.7h10.65C192.74,80.23,192.86,80.35,192.86,80.58z M204.06,63.06
				c0.23,0,0.35,0.12,0.35,0.35s-0.12,0.35-0.35,0.35h-7.27c-0.1-0.13-0.2-0.26-0.3-0.37c-0.1-0.12-0.2-0.22-0.3-0.32H204.06z"/>
			<path d="M242.94,83.42c0.23,0,0.35,0.12,0.35,0.35c0,0.23-0.12,0.35-0.35,0.35H240c-1.53,2.19-3.49,3.93-5.9,5.23
				c-2.41,1.29-5.07,1.94-7.99,1.94c-2.16,0-4.19-0.37-6.1-1.12c-1.91-0.75-3.61-1.77-5.1-3.09c-1.49-1.31-2.72-2.86-3.68-4.65
				c-0.96-1.79-1.58-3.73-1.84-5.82h-2.99c-0.1-0.63-0.15-1.31-0.15-2.05c0-2.33,0.44-4.52,1.32-6.56c0.88-2.05,2.08-3.83,3.61-5.37
				c1.53-1.53,3.31-2.74,5.35-3.62c2.04-0.88,4.24-1.32,6.59-1.32c2.32,0,4.51,0.44,6.57,1.32c2.06,0.88,3.85,2.09,5.38,3.62
				c1.53,1.53,2.73,3.32,3.61,5.37c0.88,2.05,1.32,4.23,1.32,6.56c0,0.33-0.01,0.66-0.02,0.97c-0.02,0.32-0.04,0.64-0.07,0.97h2.99
				c-0.3,2.52-1.11,4.83-2.44,6.92H242.94z M236.71,69.68c0.23,0,0.35-0.12,0.35-0.35c0-0.23-0.12-0.35-0.35-0.35h-6.07
				c-0.83-1.15-1.89-2.06-3.19-2.75c-1.29-0.69-2.74-1.03-4.33-1.03c-1.99,0-3.76,0.54-5.3,1.62c-1.54,1.08-2.65,2.48-3.31,4.21
				h6.77c0.23,0,0.35,0.12,0.35,0.35c0,0.23-0.12,0.35-0.35,0.35h-7.02c-0.3,0.9-0.45,1.84-0.45,2.84c0,0.33,0.02,0.66,0.05,0.97
				c0.03,0.32,0.08,0.64,0.15,0.97h3.04c0.2,0.96,0.54,1.84,1.02,2.64c0.48,0.8,1.05,1.51,1.72,2.14h-5.63
				c-0.23,0-0.35,0.12-0.35,0.35c0,0.23,0.12,0.35,0.35,0.35h6.47c1.56,1.19,3.38,1.79,5.47,1.79c1.1,0,2.14-0.18,3.14-0.55
				c1-0.37,1.89-0.86,2.69-1.49c0.8-0.63,1.48-1.39,2.04-2.26c0.56-0.88,0.96-1.83,1.19-2.86h-2.94c0.07-0.33,0.12-0.67,0.15-1
				c0.03-0.33,0.05-0.69,0.05-1.05c0-0.87-0.12-1.71-0.35-2.53s-0.55-1.6-0.95-2.33H236.71z M220.64,81.97
				c-0.3-0.2-0.58-0.43-0.85-0.7L220.64,81.97z M230.64,68.98l0.5,0.7h-5.38c-0.23,0-0.35-0.12-0.35-0.35
				c0-0.23,0.12-0.35,0.35-0.35H230.64z"/>
		</g>
	</g>
</g>
</svg>
